<mxfile host="Electron" modified="2023-11-27T18:07:09.194Z" agent="Mozilla/5.0 (Macintosh; Intel Mac OS X 10_15_7) AppleWebKit/537.36 (KHTML, like Gecko) draw.io/22.1.2 Chrome/114.0.5735.289 Electron/25.9.4 Safari/537.36" etag="twW65ZC-I-G00PcDnaY0" version="22.1.2" type="device">
  <diagram name="Сторінка-1" id="QUBilbmrSLd4xBXmLasg">
    <mxGraphModel dx="859" dy="1137" grid="1" gridSize="10" guides="1" tooltips="1" connect="1" arrows="1" fold="1" page="1" pageScale="1" pageWidth="827" pageHeight="1169" math="0" shadow="0">
      <root>
        <mxCell id="0" />
        <mxCell id="1" parent="0" />
        <mxCell id="6bIh3T4furbZxyI4kHRT-3" value="" style="edgeStyle=orthogonalEdgeStyle;rounded=0;orthogonalLoop=1;jettySize=auto;html=1;" edge="1" parent="1" source="6bIh3T4furbZxyI4kHRT-1" target="6bIh3T4furbZxyI4kHRT-2">
          <mxGeometry relative="1" as="geometry" />
        </mxCell>
        <mxCell id="6bIh3T4furbZxyI4kHRT-1" value="Start" style="ellipse;whiteSpace=wrap;html=1;" vertex="1" parent="1">
          <mxGeometry x="30" y="260" width="120" height="80" as="geometry" />
        </mxCell>
        <mxCell id="6bIh3T4furbZxyI4kHRT-5" value="" style="edgeStyle=orthogonalEdgeStyle;rounded=0;orthogonalLoop=1;jettySize=auto;html=1;" edge="1" parent="1" source="6bIh3T4furbZxyI4kHRT-2" target="6bIh3T4furbZxyI4kHRT-4">
          <mxGeometry relative="1" as="geometry" />
        </mxCell>
        <mxCell id="6bIh3T4furbZxyI4kHRT-2" value="cin &amp;gt;&amp;gt; h,m" style="shape=parallelogram;perimeter=parallelogramPerimeter;whiteSpace=wrap;html=1;fixedSize=1;" vertex="1" parent="1">
          <mxGeometry x="250" y="220" width="120" height="60" as="geometry" />
        </mxCell>
        <mxCell id="6bIh3T4furbZxyI4kHRT-7" value="" style="edgeStyle=orthogonalEdgeStyle;rounded=0;orthogonalLoop=1;jettySize=auto;html=1;" edge="1" parent="1" source="6bIh3T4furbZxyI4kHRT-4" target="6bIh3T4furbZxyI4kHRT-6">
          <mxGeometry relative="1" as="geometry" />
        </mxCell>
        <mxCell id="6bIh3T4furbZxyI4kHRT-4" value="init. needed lists" style="rounded=0;whiteSpace=wrap;html=1;" vertex="1" parent="1">
          <mxGeometry x="414" y="290" width="120" height="60" as="geometry" />
        </mxCell>
        <mxCell id="6bIh3T4furbZxyI4kHRT-10" style="edgeStyle=orthogonalEdgeStyle;rounded=0;orthogonalLoop=1;jettySize=auto;html=1;" edge="1" parent="1" source="6bIh3T4furbZxyI4kHRT-6">
          <mxGeometry relative="1" as="geometry">
            <mxPoint x="160" y="800" as="targetPoint" />
            <Array as="points">
              <mxPoint x="161" y="400" />
              <mxPoint x="161" y="710" />
            </Array>
          </mxGeometry>
        </mxCell>
        <mxCell id="6bIh3T4furbZxyI4kHRT-13" value="" style="edgeStyle=orthogonalEdgeStyle;rounded=0;orthogonalLoop=1;jettySize=auto;html=1;" edge="1" parent="1" source="6bIh3T4furbZxyI4kHRT-6" target="6bIh3T4furbZxyI4kHRT-12">
          <mxGeometry relative="1" as="geometry" />
        </mxCell>
        <mxCell id="6bIh3T4furbZxyI4kHRT-6" value="go through 3 inputs" style="shape=hexagon;perimeter=hexagonPerimeter2;whiteSpace=wrap;html=1;fixedSize=1;" vertex="1" parent="1">
          <mxGeometry x="250" y="360" width="120" height="80" as="geometry" />
        </mxCell>
        <mxCell id="6bIh3T4furbZxyI4kHRT-16" style="edgeStyle=orthogonalEdgeStyle;rounded=0;orthogonalLoop=1;jettySize=auto;html=1;entryX=0.5;entryY=0;entryDx=0;entryDy=0;" edge="1" parent="1" source="6bIh3T4furbZxyI4kHRT-12" target="6bIh3T4furbZxyI4kHRT-15">
          <mxGeometry relative="1" as="geometry" />
        </mxCell>
        <mxCell id="6bIh3T4furbZxyI4kHRT-12" value="cin &amp;gt;&amp;gt; a, b" style="shape=parallelogram;perimeter=parallelogramPerimeter;whiteSpace=wrap;html=1;fixedSize=1;" vertex="1" parent="1">
          <mxGeometry x="220" y="480" width="120" height="60" as="geometry" />
        </mxCell>
        <mxCell id="6bIh3T4furbZxyI4kHRT-21" value="" style="edgeStyle=orthogonalEdgeStyle;rounded=0;orthogonalLoop=1;jettySize=auto;html=1;" edge="1" parent="1" source="6bIh3T4furbZxyI4kHRT-15" target="6bIh3T4furbZxyI4kHRT-20">
          <mxGeometry relative="1" as="geometry" />
        </mxCell>
        <mxCell id="6bIh3T4furbZxyI4kHRT-23" value="" style="edgeStyle=orthogonalEdgeStyle;rounded=0;orthogonalLoop=1;jettySize=auto;html=1;" edge="1" parent="1" source="6bIh3T4furbZxyI4kHRT-15" target="6bIh3T4furbZxyI4kHRT-22">
          <mxGeometry relative="1" as="geometry" />
        </mxCell>
        <mxCell id="6bIh3T4furbZxyI4kHRT-15" value="both &amp;gt; 0" style="rhombus;whiteSpace=wrap;html=1;" vertex="1" parent="1">
          <mxGeometry x="240" y="580" width="80" height="80" as="geometry" />
        </mxCell>
        <mxCell id="6bIh3T4furbZxyI4kHRT-25" style="edgeStyle=orthogonalEdgeStyle;rounded=0;orthogonalLoop=1;jettySize=auto;html=1;" edge="1" parent="1" source="6bIh3T4furbZxyI4kHRT-20">
          <mxGeometry relative="1" as="geometry">
            <mxPoint x="560" y="620" as="targetPoint" />
          </mxGeometry>
        </mxCell>
        <mxCell id="6bIh3T4furbZxyI4kHRT-20" value="ans = loss" style="rounded=0;whiteSpace=wrap;html=1;" vertex="1" parent="1">
          <mxGeometry x="360" y="590" width="120" height="60" as="geometry" />
        </mxCell>
        <mxCell id="6bIh3T4furbZxyI4kHRT-24" style="edgeStyle=orthogonalEdgeStyle;rounded=0;orthogonalLoop=1;jettySize=auto;html=1;entryX=1;entryY=0.5;entryDx=0;entryDy=0;" edge="1" parent="1" source="6bIh3T4furbZxyI4kHRT-22" target="6bIh3T4furbZxyI4kHRT-6">
          <mxGeometry relative="1" as="geometry">
            <mxPoint x="560" y="400" as="targetPoint" />
            <Array as="points">
              <mxPoint x="561" y="720" />
              <mxPoint x="561" y="400" />
            </Array>
          </mxGeometry>
        </mxCell>
        <mxCell id="6bIh3T4furbZxyI4kHRT-22" value="decrease hp/mana" style="whiteSpace=wrap;html=1;" vertex="1" parent="1">
          <mxGeometry x="225" y="690" width="110" height="60" as="geometry" />
        </mxCell>
        <mxCell id="6bIh3T4furbZxyI4kHRT-27" value="True" style="text;html=1;strokeColor=none;fillColor=none;align=center;verticalAlign=middle;whiteSpace=wrap;rounded=0;" vertex="1" parent="1">
          <mxGeometry x="310" y="600" width="60" height="30" as="geometry" />
        </mxCell>
        <mxCell id="6bIh3T4furbZxyI4kHRT-33" value="" style="edgeStyle=orthogonalEdgeStyle;rounded=0;orthogonalLoop=1;jettySize=auto;html=1;" edge="1" parent="1" source="6bIh3T4furbZxyI4kHRT-30" target="6bIh3T4furbZxyI4kHRT-32">
          <mxGeometry relative="1" as="geometry" />
        </mxCell>
        <mxCell id="6bIh3T4furbZxyI4kHRT-35" style="edgeStyle=orthogonalEdgeStyle;rounded=0;orthogonalLoop=1;jettySize=auto;html=1;" edge="1" parent="1" source="6bIh3T4furbZxyI4kHRT-30" target="6bIh3T4furbZxyI4kHRT-36">
          <mxGeometry relative="1" as="geometry">
            <mxPoint x="160" y="940" as="targetPoint" />
            <Array as="points">
              <mxPoint x="160" y="910" />
              <mxPoint x="161" y="910" />
              <mxPoint x="161" y="930" />
            </Array>
          </mxGeometry>
        </mxCell>
        <mxCell id="6bIh3T4furbZxyI4kHRT-30" value="ans == loss&amp;nbsp;&lt;br&gt;or some is &amp;lt;0" style="rhombus;whiteSpace=wrap;html=1;" vertex="1" parent="1">
          <mxGeometry x="80" y="800" width="160" height="80" as="geometry" />
        </mxCell>
        <mxCell id="6bIh3T4furbZxyI4kHRT-39" value="" style="edgeStyle=orthogonalEdgeStyle;rounded=0;orthogonalLoop=1;jettySize=auto;html=1;" edge="1" parent="1" source="6bIh3T4furbZxyI4kHRT-32" target="6bIh3T4furbZxyI4kHRT-38">
          <mxGeometry relative="1" as="geometry" />
        </mxCell>
        <mxCell id="6bIh3T4furbZxyI4kHRT-32" value="cout &amp;lt;&amp;lt; &quot;Loss&quot;" style="shape=parallelogram;perimeter=parallelogramPerimeter;whiteSpace=wrap;html=1;fixedSize=1;" vertex="1" parent="1">
          <mxGeometry x="260" y="810" width="120" height="60" as="geometry" />
        </mxCell>
        <mxCell id="6bIh3T4furbZxyI4kHRT-34" value="True" style="text;html=1;strokeColor=none;fillColor=none;align=center;verticalAlign=middle;whiteSpace=wrap;rounded=0;" vertex="1" parent="1">
          <mxGeometry x="200" y="810" width="60" height="30" as="geometry" />
        </mxCell>
        <mxCell id="6bIh3T4furbZxyI4kHRT-40" value="" style="edgeStyle=orthogonalEdgeStyle;rounded=0;orthogonalLoop=1;jettySize=auto;html=1;" edge="1" parent="1" source="6bIh3T4furbZxyI4kHRT-36" target="6bIh3T4furbZxyI4kHRT-38">
          <mxGeometry relative="1" as="geometry" />
        </mxCell>
        <mxCell id="6bIh3T4furbZxyI4kHRT-36" value="cout &amp;lt;&amp;lt; &quot;True&quot;" style="shape=parallelogram;perimeter=parallelogramPerimeter;whiteSpace=wrap;html=1;fixedSize=1;" vertex="1" parent="1">
          <mxGeometry x="250" y="910" width="120" height="60" as="geometry" />
        </mxCell>
        <mxCell id="6bIh3T4furbZxyI4kHRT-37" value="false" style="text;html=1;strokeColor=none;fillColor=none;align=center;verticalAlign=middle;whiteSpace=wrap;rounded=0;" vertex="1" parent="1">
          <mxGeometry x="180" y="890" width="60" height="30" as="geometry" />
        </mxCell>
        <mxCell id="6bIh3T4furbZxyI4kHRT-38" value="End" style="ellipse;whiteSpace=wrap;html=1;" vertex="1" parent="1">
          <mxGeometry x="450" y="840" width="120" height="80" as="geometry" />
        </mxCell>
      </root>
    </mxGraphModel>
  </diagram>
</mxfile>
